<svg xmlns="http://www.w3.org/2000/svg" viewBox="0 0 512 512">
  <path fill="#ffb7c5" d="M256,0C177,0,154.5,84.1,135,148.5C64.6,140.7,0,172.9,0,256c0,83.1,64.6,115.3,135,107.5C154.5,427.9,177,512,256,512c79,0,101.5-84.1,121-148.5C447.4,371.3,512,339.1,512,256c0-83.1-64.6-115.3-135-107.5C357.5,84.1,335,0,256,0z"/>
  <circle cx="256" cy="256" r="40" fill="#ff7da1"/>
  <path fill="#ff7da1" d="M256,220c5.5,0,10,4.5,10,10v52c0,5.5-4.5,10-10,10c-5.5,0-10-4.5-10-10v-52C246,224.5,250.5,220,256,220z"/>
  <path fill="#ff7da1" d="M228.6,238.6c3.9-3.9,10.2-3.9,14.1,0l36.8,36.8c3.9,3.9,3.9,10.2,0,14.1c-3.9,3.9-10.2,3.9-14.1,0l-36.8-36.8C224.7,248.8,224.7,242.5,228.6,238.6z"/>
  <path fill="#ff7da1" d="M283.4,238.6c3.9,3.9,3.9,10.2,0,14.1l-36.8,36.8c-3.9,3.9-10.2,3.9-14.1,0c-3.9-3.9-3.9-10.2,0-14.1l36.8-36.8C273.2,234.7,279.5,234.7,283.4,238.6z"/>
</svg>
