<svg width="350" height="350" viewBox="0 0 350 350" fill="none" xmlns="http://www.w3.org/2000/svg">
<rect width="350" height="350" fill="#F2F3F8"/>
<path d="M170.789 95.1248C170.789 91.7421 168.043 89 164.655 89H136.029C132.641 89 129.895 91.7422 129.895 95.1248V122.964C129.895 124.588 129.248 126.146 128.098 127.295L127.353 128.038C126.203 129.186 124.643 129.832 123.016 129.832H95.1342C91.7464 129.832 89 132.574 89 135.957L89 213.537C89 216.92 91.7464 219.662 95.1342 219.662H123.016C124.643 219.662 126.203 220.307 127.353 221.456L128.098 222.199C129.248 223.348 129.895 224.905 129.895 226.53L129.895 254.369C129.895 257.751 132.641 260.493 136.029 260.493H213.728C217.116 260.493 219.863 257.751 219.863 254.369V226.529C219.863 224.905 220.509 223.347 221.659 222.198L222.403 221.456C223.554 220.307 225.114 219.662 226.741 219.662H254.623C258.011 219.662 260.757 216.92 260.757 213.537V184.955C260.757 181.572 258.011 178.83 254.623 178.83H225.997C222.609 178.83 219.863 181.572 219.863 184.955V212.794C219.863 214.418 219.216 215.976 218.066 217.124L217.321 217.868C216.171 219.016 214.611 219.662 212.984 219.662H136.773C135.146 219.662 133.586 219.016 132.435 217.868L131.691 217.125C130.541 215.976 129.895 214.418 129.895 212.794L129.895 136.699C129.895 135.075 130.541 133.517 131.691 132.368L132.435 131.626C133.586 130.477 135.146 129.832 136.773 129.832H164.655C168.043 129.832 170.789 127.09 170.789 123.707V95.1248Z" fill="url(#paint0_linear_6024_12787)"/>
<path d="M254.625 89C258.013 89 260.76 91.7422 260.76 95.1248V148.206C260.76 151.589 258.013 154.331 254.625 154.331H202.207C200.58 154.331 199.019 154.976 197.869 156.125L197.125 156.868C195.974 158.016 195.328 159.574 195.328 161.199V189.038C195.328 192.42 192.582 195.163 189.194 195.163H160.568C157.18 195.163 154.434 192.42 154.434 189.038V160.456C154.434 157.073 157.18 154.331 160.568 154.331H188.45C190.077 154.331 191.637 153.686 192.787 152.537L193.532 151.794C194.682 150.645 195.328 149.087 195.328 147.463V95.1248C195.328 91.7422 198.075 89 201.462 89H254.625Z" fill="url(#paint1_linear_6024_12787)"/>
<defs>
<linearGradient id="paint0_linear_6024_12787" x1="260.76" y1="89" x2="89.2663" y2="260.759" gradientUnits="userSpaceOnUse">
<stop stop-color="#8ABDF9"/>
<stop offset="1" stop-color="#2A7CDE"/>
</linearGradient>
<linearGradient id="paint1_linear_6024_12787" x1="260.76" y1="89" x2="89.2663" y2="260.759" gradientUnits="userSpaceOnUse">
<stop stop-color="#8ABDF9"/>
<stop offset="1" stop-color="#2A7CDE"/>
</linearGradient>
</defs>
</svg>
