<svg width="350" height="350" viewBox="0 0 350 350" fill="none" xmlns="http://www.w3.org/2000/svg">
<rect width="350" height="350" fill="#F2F3F8"/>
<path d="M170.237 82.1429C170.237 78.198 167.039 75 163.094 75H129.761C125.816 75 122.618 78.198 122.618 82.1429V114.609C122.618 116.504 121.866 118.32 120.526 119.66L119.659 120.527C118.32 121.866 116.503 122.619 114.609 122.619H82.1428C78.1979 122.619 75 125.817 75 129.762L75 220.238C75 224.183 78.1979 227.381 82.1428 227.381H114.609C116.503 227.381 118.32 228.133 119.659 229.473L120.526 230.34C121.866 231.679 122.618 233.496 122.618 235.391L122.618 267.857C122.618 271.802 125.816 275 129.761 275H220.236C224.181 275 227.379 271.802 227.379 267.857V235.39C227.379 233.496 228.131 231.679 229.471 230.339L230.337 229.473C231.677 228.133 233.493 227.381 235.388 227.381H267.854C271.799 227.381 274.997 224.183 274.997 220.238V186.905C274.997 182.96 271.799 179.762 267.854 179.762H234.522C230.577 179.762 227.379 182.96 227.379 186.905V219.371C227.379 221.266 226.626 223.082 225.287 224.422L224.42 225.289C223.08 226.628 221.264 227.381 219.369 227.381H130.627C128.733 227.381 126.916 226.628 125.577 225.289L124.71 224.423C123.371 223.083 122.618 221.266 122.618 219.372L122.618 130.628C122.618 128.734 123.371 126.917 124.71 125.577L125.577 124.711C126.916 123.372 128.733 122.619 130.627 122.619H163.094C167.039 122.619 170.237 119.421 170.237 115.476V82.1429Z" fill="url(#paint0_linear_6059_53654)"/>
<path d="M267.857 75C271.802 75 275 78.198 275 82.1429V144.048C275 147.993 271.802 151.19 267.857 151.19H206.82C204.925 151.19 203.109 151.943 201.769 153.283L200.903 154.149C199.563 155.489 198.811 157.306 198.811 159.2V191.667C198.811 195.612 195.613 198.81 191.668 198.81H158.335C154.39 198.81 151.192 195.612 151.192 191.667V158.333C151.192 154.388 154.39 151.19 158.335 151.19H190.801C192.696 151.19 194.512 150.438 195.852 149.098L196.718 148.232C198.058 146.892 198.811 145.075 198.811 143.181V82.1429C198.811 78.198 202.008 75 205.953 75H267.857Z" fill="url(#paint1_linear_6059_53654)"/>
<defs>
<linearGradient id="paint0_linear_6059_53654" x1="192.033" y1="-32.6923" x2="-20.5125" y2="177.28" gradientUnits="userSpaceOnUse">
<stop stop-color="#A192EC"/>
<stop offset="1" stop-color="#5547EB"/>
</linearGradient>
<linearGradient id="paint1_linear_6059_53654" x1="192.033" y1="-32.6923" x2="-20.5125" y2="177.28" gradientUnits="userSpaceOnUse">
<stop stop-color="#A192EC"/>
<stop offset="1" stop-color="#5547EB"/>
</linearGradient>
</defs>
</svg>
