<svg width="122" height="122" viewBox="0 0 122 122" fill="none" xmlns="http://www.w3.org/2000/svg">
<rect width="122" height="122" rx="20" fill="white"/>
<path d="M39.92 105.417C37.12 104.057 36.6 102.417 36.6 95.1766V89.1766L32.04 88.9366C26.68 88.6966 24.72 87.9766 22.56 85.5766C19.96 82.6966 20 83.2166 20 58.2566C20 33.2166 19.96 33.8566 22.6 31.0966C25.72 27.8966 24.28 28.0566 47.52 27.9366C58.88 27.8966 68.2 27.8966 68.2 27.9366C68.2 28.0166 67.76 28.9366 67.2 30.0166C64.52 35.3366 67.2 42.0566 72.84 44.0566C79.28 46.2966 80.68 47.7766 83.16 54.6566C84.64 58.8566 87.84 61.0566 92.32 61.0566C95.24 61.0566 97.4 60.3366 98.92 58.9366L99.84 58.0966L99.72 69.8566C99.6 80.2566 99.52 81.8166 98.88 83.0966C97.92 84.9766 96.04 86.8966 94.04 87.9766C92.44 88.8166 91.92 88.8566 76.52 88.9766L60.6 89.0966L53.32 97.1366C44.6 106.697 43.68 107.297 39.92 105.417Z" fill="#0092FF"/>
<path d="M90.8799 53.2966C90.5199 53.0166 89.7999 51.6166 89.3599 50.2166C88.0799 46.3366 87.1199 44.6966 84.6399 42.2566C82.3199 39.9366 77.9999 37.4566 76.3199 37.4566C75.1199 37.4566 73.3999 35.7766 73.3999 34.6566C73.3999 33.1366 74.1599 32.3366 76.2799 31.6166C83.0399 29.4166 87.3199 25.3366 89.1999 19.2966C90.9999 13.6966 94.0799 13.5366 95.7599 19.0166C97.6399 25.1766 102.36 29.8966 108.2 31.4566C110.32 32.0166 110.96 32.4966 111.44 33.7766C112.04 35.3766 110.96 36.8566 108.72 37.4166C102.6 38.9766 97.6399 43.7766 95.7599 49.9766C94.6399 53.5366 92.8399 54.7766 90.8799 53.2966Z" fill="#0092FF"/>
</svg>
