<svg width="350" height="350" viewBox="0 0 350 350" fill="none" xmlns="http://www.w3.org/2000/svg">
<rect width="350" height="350" fill="#F2F3F8"/>
<g clip-path="url(#clip0_6059_53661)">
<path d="M90.019 136.333C90.019 138.429 90.019 140.333 90.019 142.238C90.019 144.143 90.019 146.048 90.019 147.762C90.019 149.476 90.019 151.19 90.019 152.905C90.019 154.619 90.019 156.143 90.019 157.667C90.019 159.19 90.019 160.905 90.019 162.429C90.019 163.952 90.019 165.476 90.019 167.19C90.019 168.905 90.019 170.429 90.019 171.952C90.019 173.667 90.019 175.381 90.019 177.095C90.019 178.81 90.019 180.714 90.019 182.619C90.019 184.524 90.019 186.429 90.019 188.524C90.019 190.619 90.3992 192.333 91.1597 193.286C91.9202 194.429 93.0608 195 94.5817 194.81C96.1027 194.81 97.2433 194.238 98.0038 193.095C98.7643 191.952 99.1445 190.429 99.1445 188.333C99.1445 186.238 99.1445 184.333 99.1445 182.429C99.1445 180.524 99.1445 178.81 99.1445 177.095C99.1445 175.381 99.1445 173.667 99.1445 171.952C99.1445 170.238 99.1445 168.714 99.1445 167.19C99.1445 165.667 99.1445 164.143 99.1445 162.429C99.1445 160.905 99.1445 159.381 99.1445 157.667C99.1445 156.143 99.1445 154.429 99.1445 152.905C99.1445 151.19 99.1445 149.667 99.1445 147.762C99.1445 146.048 99.1445 144.143 99.1445 142.429C99.1445 140.524 99.1445 138.619 99.1445 136.524C101.046 136.524 102.757 136.714 104.278 136.714C105.798 136.714 107.319 136.905 108.84 136.905C110.361 136.905 112.072 137.095 113.973 137.095C113.973 139.19 113.973 141.095 113.973 143C113.973 144.905 113.973 146.619 113.973 148.333C113.973 150.048 113.973 151.762 113.973 153.286C113.973 155 113.973 156.524 113.973 158.048C113.973 159.571 113.973 161.095 113.973 162.619C113.973 164.143 113.973 165.667 113.973 167.19C113.973 168.714 113.973 170.238 113.973 171.952C113.973 173.667 113.973 175.19 113.973 176.905C113.973 178.619 113.973 180.333 113.973 182.238C113.973 184.143 113.973 186.048 113.973 188.143C113.973 190.238 113.783 191.952 113.403 193.857C113.023 195.571 112.452 197.286 111.692 198.619C110.932 200.143 109.981 201.476 108.84 202.619C107.7 203.762 106.369 204.714 105.038 205.667C103.517 206.429 101.996 207.19 100.285 207.571C98.5741 208.143 96.673 208.333 94.5817 208.524C92.4905 208.714 90.5894 208.524 88.6882 208.143C86.9772 207.762 85.2662 207.381 83.9354 206.619C82.4144 205.857 81.2738 204.905 80.1331 203.952C78.9924 202.81 78.0418 201.476 77.2814 200.143C76.5209 198.619 75.9506 197.095 75.5703 195.19C75.1901 193.286 75 191.381 75 189.286C75 187.19 75 185.095 75 183.19C75 181.286 75 179.381 75 177.476C75 175.571 75 173.857 75 172.143C75 170.429 75 168.714 75 167.19C75 165.667 75 163.952 75 162.238C75 160.714 75 159 75 157.286C75 155.571 75 154.048 75 152.333C75 150.619 75 148.905 75 147C75 145.095 75 143.381 75 141.286C75 139.381 75 137.286 75 135.19C76.9011 135.19 78.6122 135.381 80.1331 135.381C81.654 135.381 83.1749 135.571 84.6958 135.571C86.2167 135.571 87.9278 136.143 90.019 136.333ZM120.817 137.667C122.909 137.667 124.62 137.857 126.331 137.857C128.042 137.857 129.563 138.048 131.084 138.048C132.795 138.048 134.506 138.238 136.597 138.238C137.167 140.143 137.738 141.667 138.118 143.381C138.688 144.905 139.068 146.429 139.449 147.762C139.829 149.095 140.399 150.619 140.779 151.952C141.16 153.286 141.73 154.619 142.11 156.143C142.49 157.476 143.061 159 143.441 160.524C144.011 162.048 144.392 163.762 144.962 165.476C145.342 167 145.722 168.524 146.293 170.048C146.673 171.571 147.243 173.095 147.433 174.619C147.624 174.619 147.624 174.619 147.624 174.619C147.624 173.095 147.433 171.571 147.433 170.048C147.433 168.524 147.433 167 147.433 165.476C147.433 163.952 147.433 162.429 147.433 160.905C147.433 158.619 147.433 156.714 147.433 155C147.433 153.286 147.433 151.571 147.433 149.857C147.433 148.143 147.433 146.429 147.433 144.714C147.433 143 147.433 140.905 147.433 138.81C149.144 138.81 150.665 139 151.996 139C153.327 139 154.658 139.19 155.989 139.19C157.319 139.19 158.84 139.381 160.551 139.381C160.551 141.476 160.551 143.571 160.551 145.667C160.551 147.571 160.551 149.667 160.551 151.381C160.551 153.286 160.551 155 160.551 156.714C160.551 158.429 160.551 160.143 160.551 161.857C160.551 163.571 160.551 165.286 160.551 166.81C160.551 168.333 160.551 170.048 160.551 171.762C160.551 173.476 160.551 175 160.551 176.714C160.551 178.429 160.551 179.952 160.551 181.667C160.551 183.381 160.551 185.095 160.551 186.81C160.551 188.524 160.551 190.429 160.551 192.143C160.551 194.048 160.551 195.952 160.551 197.857C160.551 199.762 160.551 201.857 160.551 204.143C158.65 204.143 157.129 204.333 155.608 204.333C154.087 204.333 152.757 204.524 151.236 204.524C149.715 204.524 148.194 204.714 146.293 204.714C145.722 202.81 144.962 200.905 144.392 199.19C143.821 197.476 143.251 195.952 142.681 194.238C142.11 192.714 141.73 191.19 141.16 189.667C140.589 188.143 140.209 186.619 139.639 185.095C139.068 183.571 138.498 181.857 137.928 180.143C137.357 178.429 136.787 176.524 136.027 174.429C135.456 172.714 134.886 171 134.506 169.286C134.125 167.571 133.555 166.048 133.175 164.333C132.985 164.333 132.985 164.333 132.985 164.333C132.985 165.667 132.985 167.19 133.175 168.714C133.175 170.238 133.175 171.571 133.365 173.095C133.365 174.619 133.365 176.143 133.365 177.667C133.365 179.952 133.365 181.857 133.365 183.762C133.365 185.667 133.365 187.381 133.365 189.095C133.365 190.81 133.365 192.333 133.365 194.048C133.365 195.762 133.365 197.476 133.365 199.381C133.365 201.286 133.365 203.19 133.365 205.476C132.034 205.667 130.513 205.667 129.183 205.667C127.852 205.667 126.521 205.857 125.19 205.857C123.859 205.857 122.338 206.048 120.627 206.048C120.627 203.952 120.627 201.857 120.627 199.952C120.627 198.048 120.627 196.143 120.627 194.238C120.627 192.333 120.627 190.619 120.627 188.905C120.627 187.19 120.627 185.476 120.627 183.762C120.627 182.048 120.627 180.524 120.627 178.81C120.627 177.286 120.627 175.571 120.627 174.048C120.627 172.524 120.627 170.81 120.627 169.286C120.627 167.762 120.627 166.048 120.627 164.524C120.627 163 120.627 161.286 120.627 159.571C120.627 157.857 120.627 156.143 120.627 154.429C120.627 152.714 120.627 151 120.627 149.095C120.627 147.19 120.627 145.286 120.627 143.381C120.817 141.857 120.817 139.762 120.817 137.667ZM167.966 203.952C167.966 201.857 167.966 199.762 167.966 197.857C167.966 195.952 167.966 194.048 167.966 192.143C167.966 190.238 167.966 188.524 167.966 186.81C167.966 185.095 167.966 183.381 167.966 181.667C167.966 179.952 167.966 178.429 167.966 176.714C167.966 175 167.966 173.476 167.966 171.952C167.966 170.429 167.966 168.714 167.966 167.19C167.966 165.476 167.966 163.952 167.966 162.238C167.966 160.524 167.966 158.81 167.966 157.095C167.966 155.381 167.966 153.476 167.966 151.762C167.966 149.857 167.966 147.952 167.966 146.048C167.966 144.143 167.966 142.048 167.966 139.952C169.867 139.952 171.578 140.143 173.099 140.143C174.62 140.143 176.141 140.333 177.662 140.333C179.183 140.333 180.894 140.524 182.795 140.524C182.795 142.619 182.795 144.714 182.795 146.619C182.795 148.524 182.795 150.429 182.795 152.143C182.795 153.857 182.795 155.762 182.795 157.476C182.795 159.19 182.795 160.905 182.795 162.429C182.795 164.143 182.795 165.667 182.795 167.19C182.795 168.714 182.795 170.429 182.795 171.952C182.795 173.476 182.795 175.19 182.795 176.714C182.795 178.238 182.795 179.952 182.795 181.476C182.795 183.19 182.795 184.714 182.795 186.429C182.795 188.143 182.795 189.857 182.795 191.762C182.795 193.476 182.795 195.381 182.795 197.286C182.795 199.19 182.795 201.286 182.795 203.381C180.894 203.381 179.183 203.571 177.662 203.571C176.141 203.571 174.62 203.762 173.099 203.762C171.578 203.762 169.867 203.952 167.966 203.952ZM188.308 183.952C188.308 182.048 188.308 180.333 188.308 178.619C188.308 176.905 188.308 175.381 188.308 174.048C188.308 172.524 188.308 171.19 188.308 169.667C188.308 168.143 188.308 166.619 188.308 165.095C188.308 163.381 188.308 161.667 188.308 159.762C188.308 157.476 188.498 155.571 188.878 153.667C189.259 151.762 190.019 150.048 190.779 148.714C191.54 147.19 192.681 145.857 193.821 144.905C194.962 143.762 196.293 142.81 198.004 142.238C199.525 141.476 201.236 141.095 203.137 140.714C205.038 140.333 206.939 140.333 209.221 140.333C211.312 140.524 213.403 140.714 215.304 141.286C217.205 141.667 218.916 142.429 220.437 143.19C221.958 143.952 223.289 145.095 224.62 146.238C225.951 147.381 226.901 148.714 227.662 150.238C228.422 151.762 229.183 153.286 229.563 155.19C229.943 156.905 230.133 158.81 230.133 160.905C230.133 162.81 230.133 164.333 230.133 165.857C230.133 167.381 230.133 168.905 230.133 170.238C230.133 171.571 230.133 172.905 230.133 174.429C230.133 175.952 230.133 177.286 230.133 178.81C230.133 180.333 230.133 182.048 230.133 183.762C230.133 185.857 229.943 187.762 229.563 189.476C229.183 191.19 228.422 192.905 227.662 194.429C226.901 195.952 225.76 197.286 224.62 198.429C223.479 199.571 222.148 200.524 220.437 201.476C218.916 202.238 217.205 203 215.304 203.381C213.403 203.762 211.502 204.143 209.221 204.333C207.129 204.524 205.038 204.333 203.137 203.952C201.236 203.571 199.525 203.19 198.004 202.429C196.483 201.667 195.152 200.714 193.821 199.762C192.681 198.619 191.54 197.286 190.779 195.952C190.019 194.429 189.259 192.714 188.878 191C188.498 188.333 188.308 186.238 188.308 183.952ZM214.354 185.476C214.354 183.381 214.354 181.286 214.354 179.571C214.354 177.667 214.354 176.143 214.354 174.429C214.354 172.714 214.354 171.19 214.354 169.476C214.354 167.762 214.354 166.048 214.354 164.333C214.354 162.429 214.354 160.524 214.354 158.429C214.354 156.143 213.783 154.238 213.023 153.095C212.072 151.952 210.741 151.19 209.03 151.19C207.319 151.19 205.989 151.762 205.038 152.905C204.087 154.048 203.707 155.952 203.707 158.238C203.707 160.524 203.707 162.429 203.707 164.333C203.707 166.238 203.707 167.952 203.707 169.667C203.707 171.381 203.707 172.905 203.707 174.619C203.707 176.333 203.707 178.048 203.707 179.952C203.707 181.857 203.707 183.762 203.707 186.048C203.707 188.333 204.278 190.238 205.038 191.381C205.989 192.524 207.319 193.095 209.03 193.095C210.741 193.095 212.072 192.333 213.023 191.19C213.973 189.476 214.354 187.762 214.354 185.476ZM235.266 142.81C237.357 142.81 239.068 143 240.779 143C242.49 143 244.011 143.19 245.532 143.19C247.243 143.19 248.954 143.381 251.046 143.381C251.806 145.286 252.376 147 252.947 148.524C253.517 150.048 254.087 151.571 254.658 152.905C255.228 154.238 255.608 155.762 256.179 157.095C256.749 158.429 257.319 159.952 257.89 161.476C258.46 163 259.03 164.714 259.791 166.429C260.171 167.762 260.551 169.095 261.122 170.429C261.502 171.762 262.072 173.095 262.262 174.238C262.452 174.238 262.452 174.238 262.452 174.238C262.452 172.905 262.262 171.762 262.262 170.429C262.262 169.095 262.262 167.952 262.262 166.619C262.262 165.286 262.262 164.143 262.262 162.81C262.262 160.905 262.262 159.19 262.262 157.667C262.262 156.143 262.262 154.81 262.262 153.286C262.262 151.952 262.262 150.429 262.262 148.905C262.262 147.381 262.262 145.667 262.262 143.762C263.973 143.762 265.494 143.952 266.825 143.952C268.156 143.952 269.487 144.143 270.817 144.143C272.148 144.143 273.669 144.333 275.38 144.333C275.38 146.429 275.38 148.524 275.38 150.619C275.38 152.524 275.38 154.429 275.38 156.333C275.38 158.238 275.38 159.952 275.38 161.667C275.38 163.381 275.38 165.095 275.38 166.81C275.38 168.524 275.38 170.048 275.38 171.762C275.38 173.476 275.38 175 275.38 176.714C275.38 178.429 275.38 180.143 275.38 181.857C275.38 183.571 275.38 185.286 275.38 187.19C275.38 189.095 275.38 191 275.38 192.905C275.38 194.81 275.38 196.905 275.38 199.19C273.479 199.19 271.958 199.381 270.437 199.381C268.916 199.381 267.586 199.571 266.065 199.571C264.544 199.571 263.023 199.762 261.122 199.762C260.361 197.667 259.601 195.952 259.03 194.238C258.27 192.524 257.7 191 257.129 189.476C256.559 187.952 255.989 186.429 255.418 184.905C254.848 183.381 254.278 181.667 253.517 179.952C252.757 178.238 252.186 176.333 251.426 174.238C250.856 172.714 250.285 171.19 249.905 169.857C249.525 168.524 248.954 167 248.574 165.667C248.384 165.667 248.384 165.667 248.384 165.667C248.384 167.571 248.574 169.286 248.574 171.19C248.574 173.095 248.764 175 248.764 176.905C248.764 178.81 248.764 180.524 248.764 182.048C248.764 183.571 248.764 185.095 248.764 186.429C248.764 187.762 248.764 189.286 248.764 190.619C248.764 191.952 248.764 193.476 248.764 195C248.764 196.524 248.764 198.238 248.764 200.143C247.053 200.143 245.532 200.333 244.202 200.333C242.871 200.333 241.54 200.524 240.209 200.524C238.878 200.524 237.357 200.714 235.646 200.714C235.646 198.619 235.646 196.524 235.646 194.619C235.646 192.714 235.646 190.81 235.646 189.095C235.646 187.381 235.646 185.476 235.646 183.762C235.646 182.048 235.646 180.333 235.646 178.81C235.646 177.095 235.646 175.571 235.646 174.048C235.646 172.524 235.646 170.81 235.646 169.286C235.646 167.762 235.646 166.048 235.646 164.524C235.646 162.81 235.646 161.286 235.646 159.571C235.646 157.857 235.646 156.143 235.646 154.238C235.646 152.524 235.646 150.619 235.646 148.714C235.266 147 235.266 144.905 235.266 142.81ZM170.437 217.476V225.857C170.437 227.762 171.578 229.095 173.479 229.095C175.57 229.095 176.521 227.762 176.521 225.857V217.476H178.992V225.857C178.992 229.095 176.901 231.19 173.289 231.19C169.677 231.19 167.586 229.095 167.586 225.857V217.476C167.586 217.476 170.437 217.476 170.437 217.476ZM181.084 220.905H183.365V222.81C184.125 221.286 185.076 220.714 186.597 220.714C188.688 220.714 189.829 222.048 189.829 224.714V230.81H187.357V224.905C187.357 223.381 186.787 222.619 185.456 222.619C184.125 222.619 183.175 223.762 183.175 225.667V231H180.894L181.084 220.905ZM191.73 219.19H194.202V217.476H191.73V219.19ZM233.365 219H235.836V217.286H233.365V219ZM191.73 230.81H194.011V220.905H191.73V230.81ZM195.342 220.905H197.814L199.715 227.19C199.905 227.762 199.905 228.143 200.095 228.714C200.095 228.333 200.285 227.762 200.475 227.19L202.376 220.905H204.848L201.236 230.81H198.574L195.342 220.905ZM221.768 220.714C221.958 220.714 221.958 220.714 221.768 220.714L221.958 223H221.578C220.627 223 220.057 223.19 219.487 223.762C218.726 224.524 218.536 225.667 218.536 226.81V231H216.255V220.905H218.536V223.381C219.106 221.667 220.247 220.714 221.768 220.714ZM233.365 230.81H235.646V220.905H233.365V230.81ZM237.167 220.905H238.878V217.857L241.16 217.286V220.905H243.631L243.251 222.619H241.16V227.381C241.16 228.524 241.54 228.905 242.681 228.905C243.061 228.905 243.251 228.905 243.631 228.714V230.81C243.061 231 242.681 231 241.92 231C239.639 231 238.688 229.667 238.688 227.762V222.619H236.977L237.167 220.905ZM245.152 234.238V232.333C245.532 232.333 245.722 232.333 246.103 232.333C247.243 232.333 247.814 232.333 248.194 231.19L248.384 230.619L244.582 220.714H247.243L249.335 227.19C249.525 227.571 249.525 227.952 249.715 228.333C249.715 227.952 249.905 227.762 250.095 227.19L251.996 220.714H254.468L250.665 231.19C249.715 233.857 248.384 234.238 246.103 234.238C245.913 234.238 245.532 234.238 245.152 234.238ZM258.08 225.857C258.08 222.619 260.171 220.714 262.833 220.714C265.494 220.714 267.586 222.619 267.586 225.857C267.586 229.095 265.494 231 262.833 231C260.171 231 258.08 229.095 258.08 225.857ZM265.304 225.857C265.304 223.571 264.354 222.429 262.833 222.429C261.312 222.429 260.361 223.571 260.361 225.857C260.361 228.143 261.312 229.286 262.833 229.286C264.354 229.286 265.304 228.143 265.304 225.857ZM274.62 222.619H272.529V230.81H270.247V222.619H268.536V220.905H270.247V220.714C270.247 218.619 271.578 217.476 273.669 217.476C274.24 217.476 274.62 217.476 275 217.667V219.571C274.62 219.571 274.24 219.381 274.049 219.381C273.099 219.381 272.719 219.952 272.719 220.905H275.19L274.62 222.619ZM228.612 224.905L226.901 224.714C225.76 224.524 225.38 224.143 225.38 223.571C225.38 222.81 225.951 222.429 227.091 222.429C228.232 222.429 228.992 222.81 229.373 223.571L231.274 223.19C230.703 221.667 229.183 220.714 227.091 220.714C224.62 220.714 223.099 221.857 223.099 223.762C223.099 225.286 224.049 226.429 226.141 226.81L227.662 227C228.802 227.19 229.183 227.381 229.183 228.333C229.183 229.095 228.612 229.476 227.281 229.476C225.951 229.476 225.19 228.905 224.62 227.952L222.719 228.333C223.289 230.238 225 231.19 227.281 231.19C229.943 231.19 231.274 230.048 231.274 228.143C231.464 226.238 230.703 225.286 228.612 224.905ZM167.966 237.286H171.578L174.81 246.429C175 247.19 175.19 247.381 175.19 247.952C175.19 247.381 175.38 247.19 175.57 246.429L178.802 237.286H182.414V250.619H180.133V240.333C180.133 239.762 180.133 239.19 180.133 238.81C180.133 239.19 179.943 239.952 179.753 240.333L176.521 250.619H173.859L170.437 240.333C170.247 239.952 170.057 239.19 170.057 238.81C170.057 239.19 170.057 239.762 170.057 240.333V250.619H167.776V237.286H167.966ZM184.125 247.952C184.125 247 184.506 246.238 185.266 245.667C186.027 245.286 186.977 244.905 188.498 244.714L190.589 244.524V244.333C190.589 242.81 190.019 242.238 188.688 242.238C187.548 242.238 186.787 242.81 186.787 243.952H184.316C184.506 241.857 186.217 240.524 188.688 240.524C191.54 240.524 192.871 241.857 192.871 244.714V247.571C192.871 248.905 193.061 249.857 193.251 250.619H190.97C190.97 250.048 190.779 249.476 190.779 248.905C190.399 250.048 189.068 250.81 187.548 250.81C185.456 251 184.125 249.667 184.125 247.952ZM190.779 246.619V246.048L188.498 246.429C187.167 246.619 186.597 247.19 186.597 247.952C186.597 248.714 187.167 249.286 188.308 249.286C189.639 249.286 190.779 248.143 190.779 246.619ZM195.342 240.714H197.624V242.619C198.384 241.095 199.335 240.524 200.856 240.524C202.947 240.524 204.087 241.857 204.087 244.524V250.619H201.616V244.714C201.616 243.19 201.046 242.429 199.715 242.429C198.384 242.429 197.433 243.571 197.433 245.476V250.81H195.152V240.714H195.342ZM205.989 245.667C205.989 242.429 207.89 240.524 210.932 240.524C213.403 240.524 214.924 241.857 215.304 244.143L213.023 244.524C212.833 243.19 212.072 242.429 210.932 242.429C209.411 242.429 208.65 243.571 208.65 245.667C208.65 247.762 209.601 249.095 211.122 249.095C212.262 249.095 213.023 248.333 213.213 247L215.494 247.381C215.114 249.667 213.403 251 211.122 251C207.89 251 205.989 248.905 205.989 245.667ZM216.825 237.857L219.106 237.286V242.619C219.677 241.286 220.817 240.524 222.338 240.524C224.43 240.524 225.57 241.857 225.57 244.524V250.619H223.289V244.714C223.289 243.19 222.719 242.429 221.388 242.429C220.057 242.429 219.106 243.571 219.106 245.476V250.81H216.825V237.857ZM247.243 240.714H248.954V237.667L251.236 237.095V240.524H253.707L253.327 242.238H251.236V247C251.236 248.143 251.616 248.524 252.757 248.524C253.137 248.524 253.327 248.524 253.707 248.333V250.429C253.137 250.619 252.757 250.619 251.996 250.619C249.715 250.619 248.764 249.286 248.764 247.381V242.238H247.053L247.243 240.714ZM271.198 240.524C271.388 240.524 271.388 240.524 271.198 240.524L271.388 242.81H271.008C270.057 242.81 269.487 243 268.916 243.571C268.156 244.333 267.966 245.476 267.966 246.619V250.81H265.684V240.905H267.966V243.381C268.536 241.667 269.677 240.524 271.198 240.524ZM243.441 244.905L241.73 244.714C240.589 244.524 240.209 244.143 240.209 243.571C240.209 242.81 240.779 242.429 241.92 242.429C243.061 242.429 243.821 242.81 244.202 243.571L246.103 243.19C245.532 241.667 244.011 240.714 241.92 240.714C239.449 240.714 237.928 241.857 237.928 243.762C237.928 245.286 238.878 246.429 240.97 246.81L242.49 247C243.631 247.19 244.011 247.381 244.011 248.333C244.011 249.095 243.441 249.476 242.11 249.476C240.779 249.476 240.019 248.905 239.449 247.952L237.548 248.333C238.118 250.238 239.829 251.19 242.11 251.19C244.772 251.19 246.103 250.048 246.103 248.143C246.293 246.048 245.532 245.095 243.441 244.905ZM234.506 247.571C233.935 248.524 233.175 248.905 232.224 248.905C230.703 248.905 229.563 247.762 229.563 246.238H236.597V245.095C236.597 242.048 234.886 240.333 232.034 240.333C228.992 240.333 227.281 242.429 227.281 245.667C227.281 248.905 229.183 250.81 232.034 250.81C234.316 250.81 235.646 249.667 236.407 247.952L234.506 247.571ZM232.034 242.048C233.365 242.048 234.316 242.81 234.316 244.524V244.714H229.753C229.753 243.19 230.513 242.048 232.034 242.048ZM261.882 247.571C261.312 248.524 260.551 248.905 259.601 248.905C258.08 248.905 256.939 247.762 256.939 246.238H263.973V245.095C263.973 242.048 262.262 240.333 259.411 240.333C256.369 240.333 254.658 242.429 254.658 245.667C254.658 248.905 256.559 250.81 259.411 250.81C261.692 250.81 263.023 249.667 263.783 247.952L261.882 247.571ZM259.411 242.048C260.741 242.048 261.692 242.81 261.692 244.524V244.714H257.129C256.939 243.19 257.89 242.048 259.411 242.048ZM212.452 227.762C211.882 228.714 211.122 229.095 210.171 229.095C208.65 229.095 207.51 227.952 207.51 226.429H214.544V225.286C214.544 222.238 212.833 220.524 209.981 220.524C206.939 220.524 205.228 222.619 205.228 225.857C205.228 229.095 207.129 231 209.981 231C212.262 231 213.593 229.857 214.354 228.143L212.452 227.762ZM209.981 222.238C211.312 222.238 212.262 223 212.262 224.714V224.905H207.7C207.7 223.19 208.46 222.238 209.981 222.238ZM75 120.524V121.667C75 122.81 75.3802 123.952 75.9506 124.905C76.5209 125.857 77.6616 126.619 78.8023 127.19C80.1331 127.762 81.654 128.143 83.1749 128.143C83.365 128.143 83.5551 128.143 83.7452 128.143C86.0266 128.143 87.9278 127.571 89.2586 126.619C90.5894 125.667 91.3498 124.143 91.3498 122.619V120.524C91.3498 119.19 91.1597 118.238 90.5894 117.476C90.2091 116.524 89.2586 115.762 87.7376 115C86.0266 114.238 85.076 113.857 83.365 112.905C82.4144 112.524 81.8441 111.762 81.8441 111V110.048C81.8441 109.095 82.4144 108.524 83.365 108.524C83.9354 108.524 84.3156 108.714 84.5057 108.905C84.8859 109.286 85.076 109.667 85.076 110.429V112.143H91.73V110.429C91.73 108.905 91.3498 107.762 90.5894 106.81C90.019 105.857 88.8783 105.286 87.7376 104.905C86.4068 104.524 85.076 104.333 83.365 104.333C81.0837 104.333 79.1825 104.905 77.6616 105.857C76.1407 107 75.1901 108.524 75.1901 110.429V111.571C75.1901 112.905 75.3802 113.857 75.9506 114.619C76.5209 115.571 77.4715 116.333 78.9924 116.905C80.7034 117.857 81.654 118.238 83.365 119C84.6958 119.762 85.076 120.333 85.076 121.286V122.238C85.076 122.619 85.076 123 84.6958 123.381C84.5057 123.571 83.9354 123.762 83.5551 123.762C82.4144 123.762 81.8441 123 81.8441 121.667V120.524H75ZM92.6806 109.476L98.5741 109.286V128.143L106.179 128.333V109.095L112.072 108.905V103.952L92.6806 104.714V109.476ZM125.951 122.238C125.951 123 125.76 123.571 125.38 123.762C125 124.143 124.62 124.333 123.859 124.333C122.529 124.333 121.768 123.571 121.768 122.048V103.571L114.163 103.762V122.238C114.163 123.762 114.544 124.905 115.304 126.048C116.065 127.19 117.205 127.952 118.536 128.524C120.057 129.095 121.768 129.476 123.859 129.476C124.049 129.476 124.43 129.476 124.62 129.476C126.331 129.476 127.852 129.286 129.183 128.714C130.703 128.143 131.654 127.381 132.414 126.238C133.175 125.095 133.555 123.762 133.555 122.238V103.19L125.951 103.381V122.238ZM151.996 103.571C150.475 103 148.384 102.619 146.293 102.81L137.167 103.19V129.476L146.293 129.857C146.483 129.857 146.863 129.857 147.053 129.857C148.954 129.857 150.665 129.476 152.186 128.905C153.707 128.333 155.038 127.19 155.798 125.857C156.559 124.524 156.939 122.81 156.939 120.714V111.571C156.939 109.667 156.559 107.952 155.608 106.619C154.848 105.286 153.707 104.333 151.996 103.571ZM149.144 121.095C149.144 122.429 148.954 123.381 148.384 124.143C147.814 124.905 147.053 125.286 146.103 125.286H144.772V107.571H146.103C147.243 107.571 148.004 107.762 148.384 108.524C148.954 108.905 149.144 109.857 149.144 111.19V121.095ZM167.776 118.429H175V113.286H167.776V107.19L175.57 107V101.667L160.171 102.238V130.238L175.951 130.81V125.476L167.776 125.286C167.776 125.286 167.776 118.429 167.776 118.429ZM191.92 111.381C191.92 112.333 191.92 113.476 191.92 114.429C191.92 115.19 191.92 116.143 191.92 116.905C191.73 116.333 191.54 115.762 191.35 115.19C191.16 114.619 190.97 114.048 190.779 113.286C190.209 111.762 189.829 110.429 189.259 109.095C188.878 107.952 188.498 106.81 187.928 105.476L187.738 105.095C187.357 103.952 186.977 102.619 186.407 101.286V101.095L178.422 101.286V130.619L185.076 130.81V118.619C185.076 117.667 185.076 116.524 185.076 115.762V114.81C185.076 114.429 185.076 114.048 185.076 113.667C185.456 114.81 185.837 116.143 186.217 117.476C186.787 119.19 187.357 120.714 187.928 122.238C188.498 123.571 188.878 124.905 189.449 126.429C190.019 127.762 190.399 129.286 191.16 131.19L198.384 131.381V100.905L191.73 101.095L191.92 111.381ZM201.046 107.19L206.939 107V131.952L214.544 132.143V106.81L220.437 106.619V100.143L201.046 100.905V107.19ZM240.97 109.857V108.333V107.762C240.97 105.667 240.589 103.762 239.829 102.429C239.068 101.095 237.928 100.333 236.407 99.7619C235.076 99.1905 233.365 99 231.464 99C229.753 99 228.232 99.381 226.901 99.9524C225.38 100.524 224.24 101.476 223.479 102.81C222.529 104.143 222.148 105.667 222.148 107.571V109.286C222.148 111.19 222.529 112.524 223.099 113.857C223.859 115.19 224.81 116.143 226.521 117.286C227.471 117.857 228.232 118.429 228.992 118.81C229.753 119.19 230.513 119.762 231.464 120.333C233.175 121.476 233.365 122.238 233.365 123.762V125.286C233.365 126.048 233.175 126.81 232.795 127.19C232.414 127.571 232.034 127.571 231.464 127.571C230.323 127.571 229.563 126.619 229.563 124.714V122.619L221.958 122.429V124.333C221.958 126.048 222.338 127.381 223.099 128.714C223.859 130.048 225 131.19 226.331 131.952C227.852 132.714 229.563 133.286 231.464 133.286C231.654 133.286 231.844 133.286 232.034 133.286C233.745 133.286 235.456 132.905 236.787 132.333C238.118 131.762 239.259 130.81 240.019 129.476C240.779 128.333 241.16 126.81 241.16 125.286V122.238C241.16 120.333 240.779 119 240.209 117.857C239.449 116.524 238.308 115.381 236.597 114.429C235.646 113.857 234.886 113.286 234.125 112.905C233.365 112.524 232.605 111.952 231.654 111.381C230.513 110.619 229.753 109.476 229.753 108.333V107C229.753 105.857 230.323 104.905 231.654 104.905C232.224 104.905 232.605 105.095 232.985 105.286C233.365 105.667 233.745 106.429 233.745 107.571V109.857H240.97ZM251.046 99L243.441 99.1905L244.962 109.095L249.525 108.905L251.046 99ZM233.365 219H235.836V217.286H233.365V219ZM233.365 230.81H235.646V220.905H233.365V230.81Z" fill="black"/>
</g>
<defs>
<clipPath id="clip0_6059_53661">
<rect width="200" height="152" fill="white" transform="translate(75 99)"/>
</clipPath>
</defs>
</svg>
